<?xml version="1.0" encoding="UTF-8"?>
<svg class="css-ata32y" width="512" height="512" preserveAspectRatio="xMidYMid" version="1.1" viewBox="0 0 512 512" xmlns="http://www.w3.org/2000/svg">
 <g transform="matrix(1.3963 0 0 1.3963 109.62 63.115)">
  <rect x="-78.51" y="-45.203" width="366.69" height="366.69" rx="35.81" ry="35.81" fill="#0ff" stroke-linecap="round" stroke-linejoin="round" stroke-width="1.2587"/>
  <g transform="translate(4.8366 -2.2023)" fill="#fff" stroke-width=".51294">
   <g transform="matrix(1.222 0 0 1.222 38.902 -.98734)" featurekey="xG21Y3-0">
    <g stroke-width=".7162">
     <path d="m90.918 37.826c0-20.412-16.607-37.018-37.02-37.018-20.27 0-36.788 16.379-37.014 36.597l-7.637 17.626c-0.268 0.617-0.207 1.328 0.163 1.893 0.37 0.562 0.998 0.902 1.672 0.902h5.801v25.055c0 5.049 4.107 9.156 9.155 9.156h20.836c5.196 0 9.422-4.227 9.422-9.422v-36.021c2.544-0.842 4.386-3.239 4.386-6.062s-1.842-5.219-4.386-6.062v-8.821c2.544-0.842 4.386-3.239 4.386-6.062 0-3.521-2.863-6.387-6.386-6.387s-6.389 2.865-6.389 6.387c0 2.823 1.844 5.22 4.389 6.062v8.821c-2.545 0.841-4.389 3.239-4.389 6.062s1.844 5.221 4.389 6.062v36.021c0 2.988-2.432 5.422-5.422 5.422h-20.836c-2.842 0-5.154-2.312-5.154-5.156v-27.055c0-1.104-0.896-2-2-2h-4.754l6.589-15.205c0.109-0.251 0.166-0.522 0.166-0.795 0-18.206 14.811-33.018 33.015-33.018 18.207 0 33.02 14.812 33.02 33.018 0 8.033-2.918 15.76-8.213 21.783-0.039 0.037-0.083 0.066-0.12 0.106-5.075 5.562-7.869 12.771-7.869 20.302v17.174c0 1.104 0.896 2 2 2s2-0.896 2-2v-17.171c0-6.469 2.38-12.66 6.698-17.463 0.053-0.048 0.109-0.09 0.158-0.145 6.026-6.777 9.344-15.509 9.344-24.586zm-36.622-20.625c1.315 0 2.386 1.071 2.386 2.387s-1.07 2.387-2.386 2.387c-1.317 0-2.39-1.071-2.39-2.387 0-1.317 1.073-2.387 2.39-2.387zm0 20.945c1.315 0 2.386 1.071 2.386 2.387s-1.07 2.387-2.386 2.387c-1.317 0-2.39-1.071-2.39-2.387 0-1.317 1.073-2.387 2.39-2.387z"/>
     <path d="m48.93 30.06c0-3.522-2.866-6.388-6.389-6.388s-6.389 2.866-6.389 6.388c0 2.823 1.844 5.22 4.389 6.062v10.034c0 1.112 0.264 2.223 0.762 3.217l5.419 10.793c0.221 0.439 0.337 0.93 0.337 1.42v21.646c0 1.104 0.896 2 2 2 1.105 0 2-0.896 2-2v-21.646c0-1.111-0.263-2.223-0.762-3.215l-5.418-10.793c-0.22-0.438-0.337-0.931-0.337-1.422v-10.034c2.544-0.842 4.388-3.239 4.388-6.062zm-6.388-2.388c1.316 0 2.389 1.071 2.389 2.388 0 1.316-1.072 2.387-2.389 2.387s-2.389-1.071-2.389-2.387c0-1.317 1.072-2.388 2.389-2.388z"/>
     <path d="m72.438 30.06c0-3.522-2.865-6.388-6.389-6.388s-6.389 2.866-6.389 6.388c0 2.823 1.844 5.22 4.389 6.062v10.034c0 0.492-0.117 0.984-0.337 1.422l-5.418 10.791c-0.499 0.994-0.763 2.105-0.763 3.217v21.646c0 1.104 0.896 2 2 2s2-0.896 2-2v-21.646c0-0.49 0.115-0.98 0.337-1.42l5.419-10.794c0.498-0.993 0.762-2.104 0.762-3.216v-10.034c2.545-0.842 4.389-3.239 4.389-6.062zm-6.389 2.387c-1.316 0-2.389-1.071-2.389-2.387 0-1.317 1.072-2.388 2.389-2.388s2.389 1.071 2.389 2.388c0 1.316-1.073 2.387-2.389 2.387z"/>
    </g>
   </g>
   <g transform="matrix(1.7406 0 0 1.7406 -2.4021 130.64)" featurekey="n48U4P-0">
    <path d="m5.8 5.72 3.34 9.82h0.04l3.16-9.82h4.42v14.28h-2.94v-10.12h-0.04l-3.5 10.12h-2.42l-3.5-10.02h-0.04v10.02h-2.94v-14.28zm24.4 0v2.64h-7.54v3.06h6.92v2.44h-6.92v3.5h7.7v2.64h-10.84v-14.28zm12.86 0v2.64h-4.28v11.64h-3.14v-11.64h-4.28v-2.64zm12.32 0v2.64h-7.54v3.06h6.92v2.44h-6.92v3.5h7.7v2.64h-10.84v-14.28zm9.98 0c1.2 0 2.1968 0.37 2.99 1.11s1.19 1.6833 1.19 2.83c0 1.7867-0.75334 2.98-2.26 3.58v0.04c0.50666 0.14666 0.90332 0.39 1.19 0.73s0.50332 0.73666 0.64998 1.19 0.24 1.18 0.28 2.18c0.05334 1.3067 0.24 2.18 0.56 2.62h-3.14c-0.17334-0.44-0.30668-1.2667-0.40002-2.48-0.10666-1.28-0.34-2.1166-0.7-2.51s-0.94666-0.59-1.76-0.59h-3.16v5.58h-3.14v-14.28h7.7zm-1.1 6.46c0.66666 0 1.19-0.15 1.57-0.45s0.57-0.83 0.57-1.59c0-0.72-0.18666-1.23-0.56-1.53s-0.90668-0.45-1.6-0.45h-3.44v4.02zm12.76-6.8c1.7467 0 3.1366 0.40002 4.17 1.2s1.55 1.9333 1.55 3.4h-3.04c-0.04-0.72-0.28334-1.26-0.73-1.62s-1.1367-0.54-2.07-0.54c-0.65334 0-1.18 0.14334-1.58 0.43s-0.6 0.68332-0.6 1.19c0 0.41334 0.12334 0.71334 0.37 0.9s0.59666 0.35332 1.05 0.49998 1.2467 0.36 2.38 0.64c1.1867 0.29334 2.1 0.61334 2.74 0.96s1.1267 0.79 1.46 1.33 0.5 1.2033 0.5 1.99c0 0.90666-0.24 1.7133-0.72 2.42s-1.18 1.2433-2.1 1.61-1.96 0.55-3.12 0.55c-1.7733 0-3.23-0.44334-4.37-1.33s-1.71-2.1034-1.71-3.65v-0.1h3.04c0 0.84 0.28666 1.49 0.86 1.95s1.3333 0.69 2.28 0.69c0.84 0 1.5167-0.15 2.03-0.45s0.77-0.74334 0.77-1.33c0-0.38666-0.14-0.71332-0.42-0.97998s-0.65334-0.48332-1.12-0.64998-1.2533-0.37666-2.36-0.63c-1.28-0.32-2.2134-0.66-2.8-1.02s-1.0333-0.79666-1.34-1.31-0.46-1.13-0.46-1.85c0-0.89334 0.25666-1.6733 0.77-2.34s1.1833-1.16 2.01-1.48 1.68-0.48 2.56-0.48zm24.2 0.34v2.64h-4.28v11.64h-3.14v-11.64h-4.28v-2.64zm8.04-0.34c2.1066 0 3.8034 0.7 5.09 2.1s1.93 3.2134 1.93 5.44c0 2.1734-0.64666 3.9534-1.94 5.34s-2.9866 2.08-5.08 2.08c-2.1066 0-3.8034-0.69334-5.09-2.08s-1.93-3.1666-1.93-5.34c0-2.2134 0.64666-4.0234 1.94-5.43s2.9866-2.11 5.08-2.11zm-3.88 7.54c0 1.44 0.33998 2.5966 1.02 3.47s1.6333 1.31 2.86 1.31c1.2 0 2.1466-0.43 2.84-1.29s1.04-2.0234 1.04-3.49c0-1.5333-0.34334-2.7334-1.03-3.6s-1.6433-1.3-2.87-1.3c-1.2 0-2.1434 0.43334-2.83 1.3s-1.03 2.0666-1.03 3.6z" stroke-width=".7162"/>
   </g>
   <g transform="matrix(7.3314 0 0 7.3314 -10.117 134.06)" featurekey="n48U4P-1">
    <path d="m4.52 5.72v5.48h5.78v-5.48h3.14v14.28h-3.14v-6.16h-5.78v6.16h-3.14v-14.28zm18.8 0 5.34 14.28h-3.26l-1.08-3.18h-5.34l-1.12 3.18h-3.18l5.42-14.28zm-1.66 3.52-1.86 5.24h3.7l-1.8-5.24z" stroke-width=".7162"/>
   </g>
  </g>
 </g>
</svg>
