<?xml version="1.0" encoding="UTF-8" standalone="no"?>
<svg class="css-ata32y" width="512" height="512" preserveAspectRatio="xMidYMid" version="1.1" viewBox="0 0 512 512" id="svg26" sodipodi:docname="MetersToHA96x118.svg" inkscape:version="1.2.1 (9c6d41e410, 2022-07-14)" xmlns:inkscape="http://www.inkscape.org/namespaces/inkscape" xmlns:sodipodi="http://sodipodi.sourceforge.net/DTD/sodipodi-0.dtd" xmlns="http://www.w3.org/2000/svg" xmlns:svg="http://www.w3.org/2000/svg">
  <defs id="defs30" />
  <sodipodi:namedview id="namedview28" pagecolor="#505050" bordercolor="#eeeeee" borderopacity="1" inkscape:showpageshadow="0" inkscape:pageopacity="0" inkscape:pagecheckerboard="0" inkscape:deskcolor="#505050" showgrid="false" inkscape:zoom="5.2149125" inkscape:cx="91.276699" inkscape:cy="46.50126" inkscape:window-width="1920" inkscape:window-height="991" inkscape:window-x="1911" inkscape:window-y="-9" inkscape:window-maximized="1" inkscape:current-layer="svg26" />
  <rect x="-0.0035159849" y="-0.0019476606" width="96" height="118" rx="9.3751125" ry="11.523576" fill="#00ffff" stroke-linecap="round" stroke-linejoin="round" stroke-width="1.75752" id="rect341" />
  <g transform="matrix(0.33658667,0,0,0.33658667,14.337674,11.760127)" fill="#ffffff" stroke-width="2.12789" id="g22">
    <g transform="matrix(1.222,0,0,1.222,38.902,-0.98734)" featurekey="xG21Y3-0" id="g12" style="stroke-width:2.12789">
      <g stroke-width="2.97109" id="g10">
        <path d="M 90.918,37.826 C 90.918,17.414 74.311,0.808 53.898,0.808 33.628,0.808 17.11,17.187 16.884,37.405 L 9.247,55.031 c -0.268,0.617 -0.207,1.328 0.163,1.893 0.37,0.562 0.998,0.902 1.672,0.902 h 5.801 v 25.055 c 0,5.049 4.107,9.156 9.155,9.156 h 20.836 c 5.196,0 9.422,-4.227 9.422,-9.422 V 46.594 c 2.544,-0.842 4.386,-3.239 4.386,-6.062 0,-2.823 -1.842,-5.219 -4.386,-6.062 v -8.821 c 2.544,-0.842 4.386,-3.239 4.386,-6.062 0,-3.521 -2.863,-6.387 -6.386,-6.387 -3.523,0 -6.389,2.865 -6.389,6.387 0,2.823 1.844,5.22 4.389,6.062 v 8.821 c -2.545,0.841 -4.389,3.239 -4.389,6.062 0,2.823 1.844,5.221 4.389,6.062 v 36.021 c 0,2.988 -2.432,5.422 -5.422,5.422 H 26.038 c -2.842,0 -5.154,-2.312 -5.154,-5.156 V 55.826 c 0,-1.104 -0.896,-2 -2,-2 H 14.13 l 6.589,-15.205 c 0.109,-0.251 0.166,-0.522 0.166,-0.795 0,-18.206 14.811,-33.018 33.015,-33.018 18.207,0 33.02,14.812 33.02,33.018 0,8.033 -2.918,15.76 -8.213,21.783 -0.039,0.037 -0.083,0.066 -0.12,0.106 -5.075,5.562 -7.869,12.771 -7.869,20.302 v 17.174 c 0,1.104 0.896,2 2,2 1.104,0 2,-0.896 2,-2 V 80.02 c 0,-6.469 2.38,-12.66 6.698,-17.463 0.053,-0.048 0.109,-0.09 0.158,-0.145 6.026,-6.777 9.344,-15.509 9.344,-24.586 z M 54.296,17.201 c 1.315,0 2.386,1.071 2.386,2.387 0,1.316 -1.07,2.387 -2.386,2.387 -1.317,0 -2.39,-1.071 -2.39,-2.387 0,-1.317 1.073,-2.387 2.39,-2.387 z m 0,20.945 c 1.315,0 2.386,1.071 2.386,2.387 0,1.316 -1.07,2.387 -2.386,2.387 -1.317,0 -2.39,-1.071 -2.39,-2.387 0,-1.317 1.073,-2.387 2.39,-2.387 z" id="path338" style="stroke-width:2.97109" />
        <path d="m 48.93,30.06 c 0,-3.522 -2.866,-6.388 -6.389,-6.388 -3.523,0 -6.389,2.866 -6.389,6.388 0,2.823 1.844,5.22 4.389,6.062 v 10.034 c 0,1.112 0.264,2.223 0.762,3.217 l 5.419,10.793 c 0.221,0.439 0.337,0.93 0.337,1.42 v 21.646 c 0,1.104 0.896,2 2,2 1.105,0 2,-0.896 2,-2 V 61.586 c 0,-1.111 -0.263,-2.223 -0.762,-3.215 L 44.879,47.578 C 44.659,47.14 44.542,46.647 44.542,46.156 V 36.122 C 47.086,35.28 48.93,32.883 48.93,30.06 Z m -6.388,-2.388 c 1.316,0 2.389,1.071 2.389,2.388 0,1.316 -1.072,2.387 -2.389,2.387 -1.317,0 -2.389,-1.071 -2.389,-2.387 0,-1.317 1.072,-2.388 2.389,-2.388 z" id="path335" style="stroke-width:2.97109" />
        <path d="m 72.438,30.06 c 0,-3.522 -2.865,-6.388 -6.389,-6.388 -3.524,0 -6.389,2.866 -6.389,6.388 0,2.823 1.844,5.22 4.389,6.062 v 10.034 c 0,0.492 -0.117,0.984 -0.337,1.422 l -5.418,10.791 c -0.499,0.994 -0.763,2.105 -0.763,3.217 v 21.646 c 0,1.104 0.896,2 2,2 1.104,0 2,-0.896 2,-2 V 61.586 c 0,-0.49 0.115,-0.98 0.337,-1.42 l 5.419,-10.794 c 0.498,-0.993 0.762,-2.104 0.762,-3.216 V 36.122 c 2.545,-0.842 4.389,-3.239 4.389,-6.062 z m -6.389,2.387 c -1.316,0 -2.389,-1.071 -2.389,-2.387 0,-1.317 1.072,-2.388 2.389,-2.388 1.317,0 2.389,1.071 2.389,2.388 0,1.316 -1.073,2.387 -2.389,2.387 z" id="path332" style="stroke-width:2.97109" />
      </g>
    </g>
    <g transform="matrix(1.7406,0,0,1.7406,-2.4021,130.64)" featurekey="n48U4P-0" id="g16" style="stroke-width:2.12789">
      <path d="m 5.8,5.72 3.34,9.82 h 0.04 l 3.16,-9.82 h 4.42 V 20 H 13.82 V 9.88 H 13.78 L 10.28,20 H 7.86 L 4.36,9.98 H 4.32 V 20 H 1.38 V 5.72 Z m 24.4,0 v 2.64 h -7.54 v 3.06 h 6.92 v 2.44 h -6.92 v 3.5 h 7.7 V 20 H 19.52 V 5.72 Z m 12.86,0 V 8.36 H 38.78 V 20 H 35.64 V 8.36 H 31.36 V 5.72 Z m 12.32,0 v 2.64 h -7.54 v 3.06 h 6.92 v 2.44 h -6.92 v 3.5 h 7.7 V 20 H 44.7 V 5.72 Z m 9.98,0 c 1.2,0 2.1968,0.37 2.99,1.11 0.7932,0.74 1.19,1.6833 1.19,2.83 0,1.7867 -0.75334,2.98 -2.26,3.58 v 0.04 c 0.50666,0.14666 0.90332,0.39 1.19,0.73 0.28668,0.34 0.50332,0.73666 0.64998,1.19 0.14666,0.45334 0.24,1.18 0.28,2.18 0.05334,1.3067 0.24,2.18 0.56,2.62 h -3.14 c -0.17334,-0.44 -0.30668,-1.2667 -0.40002,-2.48 -0.10666,-1.28 -0.34,-2.1166 -0.7,-2.51 -0.36,-0.3934 -0.94666,-0.59 -1.76,-0.59 h -3.16 V 20 h -3.14 V 5.72 h 7.7 z m -1.1,6.46 c 0.66666,0 1.19,-0.15 1.57,-0.45 0.38,-0.3 0.57,-0.83 0.57,-1.59 0,-0.72 -0.18666,-1.23 -0.56,-1.53 -0.37334,-0.3 -0.90668,-0.45 -1.6,-0.45 H 60.8 v 4.02 z m 12.76,-6.8 c 1.7467,0 3.1366,0.40002 4.17,1.2 1.0334,0.79998 1.55,1.9333 1.55,3.4 H 79.7 C 79.66,9.26 79.41666,8.72 78.97,8.36 78.52334,8 77.8333,7.82 76.9,7.82 c -0.65334,0 -1.18,0.14334 -1.58,0.43 -0.4,0.28666 -0.6,0.68332 -0.6,1.19 0,0.41334 0.12334,0.71334 0.37,0.9 0.24666,0.18666 0.59666,0.35332 1.05,0.49998 0.45334,0.14666 1.2467,0.36 2.38,0.64 1.1867,0.29334 2.1,0.61334 2.74,0.96 0.64,0.34666 1.1267,0.79 1.46,1.33 0.3333,0.54 0.5,1.2033 0.5,1.99 0,0.90666 -0.24,1.7133 -0.72,2.42 -0.48,0.7067 -1.18,1.2433 -2.1,1.61 -0.92,0.3667 -1.96,0.55 -3.12,0.55 -1.7733,0 -3.23,-0.44334 -4.37,-1.33 -1.14,-0.88666 -1.71,-2.1034 -1.71,-3.65 v -0.1 h 3.04 c 0,0.84 0.28666,1.49 0.86,1.95 0.57334,0.46 1.3333,0.69 2.28,0.69 0.84,0 1.5167,-0.15 2.03,-0.45 0.5133,-0.3 0.77,-0.74334 0.77,-1.33 0,-0.38666 -0.14,-0.71332 -0.42,-0.97998 -0.28,-0.26666 -0.65334,-0.48332 -1.12,-0.64998 -0.46666,-0.16666 -1.2533,-0.37666 -2.36,-0.63 -1.28,-0.32 -2.2134,-0.66 -2.8,-1.02 -0.5866,-0.36 -1.0333,-0.79666 -1.34,-1.31 -0.3067,-0.51334 -0.46,-1.13 -0.46,-1.85 0,-0.89334 0.25666,-1.6733 0.77,-2.34 0.51334,-0.6667 1.1833,-1.16 2.01,-1.48 0.8267,-0.32 1.68,-0.48 2.56,-0.48 z m 24.2,0.34 V 8.36 H 96.94 V 20 H 93.8 V 8.36 H 89.52 V 5.72 Z m 8.04,-0.34 c 2.1066,0 3.8034,0.7 5.09,2.1 1.2866,1.4 1.93,3.2134 1.93,5.44 0,2.1734 -0.64666,3.9534 -1.94,5.34 -1.29334,1.3866 -2.9866,2.08 -5.08,2.08 -2.1066,0 -3.8034,-0.69334 -5.09,-2.08 -1.2866,-1.38666 -1.93,-3.1666 -1.93,-5.34 0,-2.2134 0.64666,-4.0234 1.94,-5.43 1.29334,-1.4066 2.9866,-2.11 5.08,-2.11 z m -3.88,7.54 c 0,1.44 0.33998,2.5966 1.02,3.47 0.68002,0.8734 1.6333,1.31 2.86,1.31 1.2,0 2.1466,-0.43 2.84,-1.29 0.6934,-0.86 1.04,-2.0234 1.04,-3.49 0,-1.5333 -0.34334,-2.7334 -1.03,-3.6 -0.68666,-0.8666 -1.6433,-1.3 -2.87,-1.3 -1.2,0 -2.1434,0.43334 -2.83,1.3 -0.6866,0.86666 -1.03,2.0666 -1.03,3.6 z" stroke-width="2.97109" id="path329" />
    </g>
    <g transform="matrix(7.3314,0,0,7.3314,-10.117,134.06)" featurekey="n48U4P-1" id="g20" style="stroke-width:2.12789">
      <path d="M 4.52,5.72 V 11.2 H 10.3 V 5.72 h 3.14 V 20 H 10.3 V 13.84 H 4.52 V 20 H 1.38 V 5.72 Z m 18.8,0 L 28.66,20 H 25.4 L 24.32,16.82 H 18.98 L 17.86,20 H 14.68 L 20.1,5.72 Z m -1.66,3.52 -1.86,5.24 h 3.7 L 21.7,9.24 Z" stroke-width="2.97109" id="path326" />
    </g>
  </g>
</svg>
