<svg viewBox="0 0 512 512" xmlns="http://www.w3.org/2000/svg"><rect x="-.004" y="-.002" width="512.01" height="512.01" rx="50" fill="#0ff" stroke-linecap="round" stroke-linejoin="round" stroke-width="1.758"/><g transform="matrix(.80078 0 0 .80078 94 51)" stroke-width="1.249" fill="#fff"><path d="m5.8 5.72l3.34 9.82h.04l3.16-9.82h4.42v14.28h-2.94v-10.12h-.04l-3.5 10.12h-2.42l-3.5-10.02h-.04v10.02h-2.94v-14.28m28.82 0v2.64h-7.54v3.06h6.92v2.44h-6.92v3.5h7.7v2.64h-10.84v-14.28m23.54 0v2.64h-4.28v11.64h-3.14v-11.64h-4.28v-2.64m24.02 0v2.64h-7.54v3.06h6.92v2.44h-6.92v3.5h7.7v2.64h-10.84v-14.28m20.66 0c1.2 0 2.197.37 2.99 1.11.793.74 1.19 1.683 1.19 2.83 0 1.787-.753 2.98-2.26 3.58v.04c.507.147.903.39 1.19.73.287.34.503.737.65 1.19.147.453.24 1.18.28 2.18.053 1.307.24 2.18.56 2.62h-3.14c-.173-.44-.307-1.267-.4-2.48-.107-1.28-.34-2.117-.7-2.51-.36-.393-.947-.59-1.76-.59h-3.16v5.58h-3.14v-14.28h7.7zm-1.1 6.46c.667 0 1.19-.15 1.57-.45.38-.3.57-.83.57-1.59 0-.72-.187-1.23-.56-1.53-.373-.3-.907-.45-1.6-.45h-3.44v4.02zm12.76-6.8c1.747 0 3.137.4 4.17 1.2 1.033.8 1.55 1.933 1.55 3.4h-3.04c-.04-.72-.283-1.26-.73-1.62-.447-.36-1.137-.54-2.07-.54-.653 0-1.18.143-1.58.43-.4.287-.6.683-.6 1.19 0 .413.123.713.37.9.247.187.597.353 1.05.5.453.147 1.247.36 2.38.64 1.187.293 2.1.613 2.74.96.64.347 1.127.79 1.46 1.33.333.54.5 1.203.5 1.99 0 .907-.24 1.713-.72 2.42-.48.707-1.18 1.243-2.1 1.61-.92.367-1.96.55-3.12.55-1.773 0-3.23-.443-4.37-1.33-1.14-.887-1.71-2.103-1.71-3.65v-.1h3.04c0 .84.287 1.49.86 1.95.573.46 1.333.69 2.28.69.84 0 1.517-.15 2.03-.45.513-.3.77-.743.77-1.33 0-.387-.14-.713-.42-.98-.28-.267-.653-.483-1.12-.65-.467-.167-1.253-.377-2.36-.63-1.28-.32-2.213-.66-2.8-1.02-.587-.36-1.033-.797-1.34-1.31-.307-.513-.46-1.13-.46-1.85 0-.893.257-1.673.77-2.34.513-.667 1.183-1.16 2.01-1.48.827-.32 1.68-.48 2.56-.48m24.2.34v2.64h-4.28v11.64h-3.14v-11.64h-4.28v-2.64m19.74-.34c2.107 0 3.803.7 5.09 2.1 1.287 1.4 1.93 3.213 1.93 5.44 0 2.173-.647 3.953-1.94 5.34-1.293 1.387-2.987 2.08-5.08 2.08-2.107 0-3.803-.693-5.09-2.08-1.287-1.387-1.93-3.167-1.93-5.34 0-2.213.647-4.02 1.94-5.43 1.293-1.407 2.987-2.11 5.08-2.11zm-3.88 7.54c0 1.44.34 2.597 1.02 3.47.68.873 1.633 1.31 2.86 1.31 1.2 0 2.147-.43 2.84-1.29.693-.86 1.04-2.023 1.04-3.49 0-1.533-.343-2.733-1.03-3.6-.687-.867-1.643-1.3-2.87-1.3-1.2 0-2.143.433-2.83 1.3-.687.867-1.03 2.067-1.03 3.6" stroke-width=".488" transform="matrix(0-4.45605 4.45605 0-23.974 518.15)" featurekey="n48U4P-0"/><g transform="matrix(1.11131 0 0 1.11131-57.823-17.08)" stroke-width="1.124"><g stroke-width=".439" transform="matrix(3.1282 0 0 3.1282 131.71 12.839)" featurekey="xG21Y3-0"><path d="m90.92 37.826c0-20.412-16.607-37.02-37.02-37.02-20.27 0-36.788 16.379-37.01 36.597l-7.637 17.626c-.268.617-.207 1.328.163 1.893.37.562.998.902 1.672.902h5.801v25.05c0 5.05 4.107 9.156 9.155 9.156h20.836c5.196 0 9.422-4.227 9.422-9.422v-36.02c2.544-.842 4.386-3.239 4.386-6.06 0-2.823-1.842-5.219-4.386-6.06v-8.821c2.544-.842 4.386-3.239 4.386-6.06 0-3.521-2.863-6.387-6.386-6.387-3.523 0-6.389 2.865-6.389 6.387 0 2.823 1.844 5.22 4.389 6.06v8.821c-2.545.841-4.389 3.239-4.389 6.06 0 2.823 1.844 5.221 4.389 6.06v36.02c0 2.988-2.432 5.422-5.422 5.422h-20.836c-2.842 0-5.154-2.312-5.154-5.156v-27.05c0-1.104-.896-2-2-2h-4.754l6.589-15.205c.109-.251.166-.522.166-.795 0-18.206 14.811-33.02 33.02-33.02 18.207 0 33.02 14.812 33.02 33.02 0 8.03-2.918 15.76-8.213 21.783-.039.037-.083.066-.12.106-5.075 5.562-7.869 12.771-7.869 20.302v17.17c0 1.104.896 2 2 2 1.104 0 2-.896 2-2v-17.17c0-6.469 2.38-12.66 6.698-17.463.053-.048.109-.09.158-.145 6.03-6.777 9.344-15.509 9.344-24.586m-36.622-20.625c1.315 0 2.386 1.071 2.386 2.387 0 1.316-1.07 2.387-2.386 2.387-1.317 0-2.39-1.071-2.39-2.387 0-1.317 1.073-2.387 2.39-2.387m0 20.945c1.315 0 2.386 1.071 2.386 2.387 0 1.316-1.07 2.387-2.386 2.387-1.317 0-2.39-1.071-2.39-2.387 0-1.317 1.073-2.387 2.39-2.387"/><path d="m48.93 30.06c0-3.522-2.866-6.388-6.389-6.388-3.523 0-6.389 2.866-6.389 6.388 0 2.823 1.844 5.22 4.389 6.06v10.03c0 1.112.264 2.223.762 3.217l5.419 10.793c.221.439.337.93.337 1.42v21.646c0 1.104.896 2 2 2 1.105 0 2-.896 2-2v-21.646c0-1.111-.263-2.223-.762-3.215l-5.418-10.793c-.22-.438-.337-.931-.337-1.422v-10.03c2.544-.842 4.388-3.239 4.388-6.06m-6.388-2.388c1.316 0 2.389 1.071 2.389 2.388 0 1.316-1.072 2.387-2.389 2.387-1.317 0-2.389-1.071-2.389-2.387 0-1.317 1.072-2.388 2.389-2.388z"/><path d="m72.44 30.06c0-3.522-2.865-6.388-6.389-6.388-3.524 0-6.389 2.866-6.389 6.388 0 2.823 1.844 5.22 4.389 6.06v10.03c0 .492-.117.984-.337 1.422l-5.418 10.791c-.499.994-.763 2.105-.763 3.217v21.646c0 1.104.896 2 2 2 1.104 0 2-.896 2-2v-21.646c0-.49.115-.98.337-1.42l5.419-10.794c.498-.993.762-2.104.762-3.216v-10.03c2.545-.842 4.389-3.239 4.389-6.06m-6.389 2.387c-1.316 0-2.389-1.071-2.389-2.387 0-1.317 1.072-2.388 2.389-2.388 1.317 0 2.389 1.071 2.389 2.388 0 1.316-1.073 2.387-2.389 2.387"/></g><path d="m4.52 5.72v5.48h5.78v-5.48h3.14v14.28h-3.14v-6.16h-5.78v6.16h-3.14v-14.28m21.94 0l5.34 14.28h-3.26l-1.08-3.18h-5.34l-1.12 3.18h-3.18l5.42-14.28m1.56 3.52l-1.86 5.24h3.7l-1.8-5.24" stroke-width=".878" transform="matrix(9.38416 0 0 9.38416 147.17 288.4)" featurekey="n48U4P-1"/></g></g></svg>